<svg width="25" height="20" viewBox="0 0 25 20" fill="none" xmlns="http://www.w3.org/2000/svg">
<path d="M20.4895 2.72799C20.4831 2.71562 20.4725 2.70593 20.4596 2.70065C18.9705 2.01739 17.3989 1.53018 15.7844 1.2512C15.7697 1.24847 15.7546 1.25044 15.7411 1.25682C15.7276 1.2632 15.7165 1.27367 15.7093 1.28674C15.4953 1.67514 15.301 2.07408 15.1273 2.48205C13.3869 2.21787 11.6166 2.21787 9.87624 2.48205C9.70131 2.07304 9.50394 1.674 9.28503 1.28674C9.27753 1.27395 9.26634 1.26372 9.25294 1.25738C9.23953 1.25104 9.22453 1.24889 9.20988 1.2512C7.59518 1.52959 6.02356 2.01684 4.53456 2.70069C4.52182 2.70609 4.51106 2.71532 4.50378 2.72709C1.52609 7.17389 0.710385 11.5114 1.11054 15.7951C1.11167 15.8056 1.11489 15.8158 1.12003 15.825C1.12516 15.8342 1.1321 15.8423 1.14042 15.8488C2.87431 17.1326 4.81368 18.1126 6.87578 18.7468C6.8903 18.7512 6.9058 18.751 6.92021 18.7463C6.93462 18.7415 6.94723 18.7325 6.95636 18.7204C7.39926 18.1178 7.79169 17.4797 8.12968 16.8125C8.13433 16.8034 8.13698 16.7933 8.13746 16.7831C8.13795 16.7728 8.13625 16.7626 8.13249 16.753C8.12873 16.7435 8.12299 16.7348 8.11564 16.7277C8.1083 16.7205 8.09952 16.715 8.08988 16.7114C7.47103 16.4746 6.87192 16.1892 6.29816 15.8578C6.28774 15.8517 6.27898 15.8431 6.27267 15.8328C6.26636 15.8224 6.26268 15.8107 6.26197 15.7987C6.26126 15.7866 6.26352 15.7745 6.26858 15.7636C6.27363 15.7526 6.28131 15.743 6.29093 15.7357C6.41132 15.6455 6.53179 15.5517 6.64675 15.4569C6.65697 15.4485 6.66932 15.4431 6.68244 15.4413C6.69555 15.4396 6.7089 15.4415 6.72097 15.4469C10.4799 17.1624 14.5495 17.1624 18.2639 15.4469C18.276 15.4411 18.2895 15.4389 18.3028 15.4406C18.3161 15.4422 18.3287 15.4475 18.3391 15.456C18.4541 15.5508 18.5745 15.6455 18.6958 15.7357C18.7055 15.7429 18.7132 15.7524 18.7184 15.7634C18.7235 15.7743 18.7259 15.7864 18.7252 15.7984C18.7246 15.8105 18.721 15.8222 18.7148 15.8326C18.7085 15.8429 18.6999 15.8516 18.6895 15.8578C18.117 16.192 17.5174 16.4773 16.8969 16.7105C16.8873 16.7142 16.8785 16.7199 16.8712 16.7271C16.8639 16.7344 16.8582 16.7432 16.8546 16.7528C16.8509 16.7624 16.8493 16.7727 16.8498 16.783C16.8504 16.7933 16.8531 16.8034 16.8578 16.8125C17.2015 17.476 17.5934 18.1133 18.0303 18.7194C18.0391 18.7318 18.0517 18.7411 18.0661 18.746C18.0806 18.7509 18.0963 18.7512 18.1109 18.7467C20.1766 18.1146 22.1194 17.1346 23.8555 15.8488C23.8639 15.8426 23.871 15.8347 23.8761 15.8256C23.8813 15.8165 23.8844 15.8064 23.8853 15.796C24.3644 10.8435 23.0833 6.54162 20.4895 2.72799ZM8.69105 13.1867C7.55933 13.1867 6.62683 12.1482 6.62683 10.8727C6.62683 9.59725 7.54124 8.55862 8.69105 8.55862C9.84984 8.55862 10.7733 9.60627 10.7552 10.8726C10.7552 12.1482 9.84078 13.1867 8.69105 13.1867ZM16.3231 13.1867C15.1914 13.1867 14.2589 12.1482 14.2589 10.8727C14.2589 9.59725 15.1733 8.55862 16.3231 8.55862C17.4819 8.55862 18.4054 9.60627 18.3873 10.8726C18.3873 12.1482 17.4819 13.1867 16.3231 13.1867Z" fill="white"/>
</svg>
