<svg width="25" height="26" viewBox="0 0 25 26" fill="none" xmlns="http://www.w3.org/2000/svg">
<g clip-path="url(#clip0_599_1234)">
<path d="M12.5 0.40625C5.59642 0.40625 0 6.00267 0 12.9063C0 19.8098 5.59642 25.4063 12.5 25.4063C19.4036 25.4063 25 19.8098 25 12.9063C25 6.00267 19.4036 0.40625 12.5 0.40625ZM18.294 8.90726C18.1058 10.8838 17.2919 15.6803 16.8776 17.8942C16.7024 18.8308 16.3574 19.145 16.0234 19.1757C15.2976 19.2425 14.7463 18.696 14.0432 18.2351C12.943 17.5139 12.3215 17.065 11.2536 16.3612C10.0195 15.548 10.8195 15.1012 11.5228 14.3703C11.7069 14.1791 14.9052 11.27 14.9671 11.0061C14.9748 10.9731 14.9823 10.8498 14.909 10.7851C14.8357 10.7204 14.728 10.7423 14.6502 10.7599C14.5398 10.785 12.7823 11.9467 9.37757 14.2449C8.87875 14.5874 8.4269 14.7544 8.02203 14.7456C7.57571 14.736 6.71719 14.4933 6.07893 14.2858C5.29612 14.0314 4.67394 13.8968 4.72813 13.4647C4.75635 13.2395 5.06633 13.0094 5.65806 12.7741C9.30208 11.1865 11.732 10.1398 12.9478 9.63402C16.4192 8.19012 17.1405 7.93931 17.6106 7.93095C17.7141 7.92923 17.9453 7.95484 18.095 8.07636C18.1946 8.16293 18.2581 8.28373 18.2729 8.41487C18.2983 8.5777 18.3054 8.74286 18.294 8.90726Z" fill="white"/>
</g>
<defs>
<clipPath id="clip0_599_1234">
<rect width="25" height="25.8065" fill="white"/>
</clipPath>
</defs>
</svg>
