<svg width="25" height="29" viewBox="0 0 25 29" fill="none" xmlns="http://www.w3.org/2000/svg">
<path d="M21.2556 5.42187C18.9174 3.07812 15.8036 1.78906 12.4944 1.78906C5.66406 1.78906 0.106027 7.3471 0.106027 14.1775C0.106027 16.3594 0.675223 18.4911 1.75781 20.3717L0 26.7891L6.56808 25.0647C8.37612 26.0525 10.4129 26.5714 12.4888 26.5714H12.4944C19.3192 26.5714 25 21.0134 25 14.183C25 10.8739 23.5937 7.76562 21.2556 5.42187ZM12.4944 24.4844C10.6417 24.4844 8.82812 23.9877 7.24888 23.0502L6.875 22.827L2.97991 23.8482L4.01786 20.048L3.77232 19.6574C2.73996 18.0167 2.19866 16.125 2.19866 14.1775C2.19866 8.50223 6.8192 3.8817 12.5 3.8817C15.2511 3.8817 17.8348 4.95312 19.7768 6.90067C21.7187 8.84821 22.9129 11.4319 22.9074 14.183C22.9074 19.8638 18.1696 24.4844 12.4944 24.4844ZM18.1417 16.7723C17.8348 16.6161 16.3114 15.8683 16.0268 15.7679C15.7422 15.6618 15.5357 15.6116 15.3292 15.9241C15.1228 16.2366 14.5313 16.9286 14.3471 17.1406C14.1685 17.3471 13.9844 17.375 13.6775 17.2187C11.8583 16.3092 10.6641 15.5949 9.46429 13.5357C9.14621 12.9888 9.78237 13.0279 10.3739 11.8449C10.4743 11.6384 10.4241 11.4598 10.346 11.3036C10.2679 11.1473 9.64844 9.62388 9.39174 9.00446C9.14063 8.40179 8.88393 8.48549 8.6942 8.47433C8.51563 8.46317 8.30915 8.46317 8.10268 8.46317C7.89621 8.46317 7.56138 8.54129 7.27679 8.84821C6.99219 9.16071 6.1942 9.90848 6.1942 11.4319C6.1942 12.9554 7.30469 14.4286 7.45536 14.635C7.61161 14.8415 9.63728 17.9665 12.7455 19.3114C14.7098 20.1596 15.4799 20.2321 16.4621 20.0871C17.0592 19.9978 18.2924 19.3393 18.5491 18.6138C18.8058 17.8884 18.8058 17.269 18.7277 17.1406C18.6551 17.0011 18.4487 16.923 18.1417 16.7723Z" fill="white"/>
</svg>
